<?xml version="1.0" encoding="UTF-8" standalone="no"?><!DOCTYPE svg PUBLIC "-//W3C//DTD SVG 1.1//EN" "http://www.w3.org/Graphics/SVG/1.1/DTD/svg11.dtd"><svg width="100%" height="100%" viewBox="0 0 69 35" version="1.1" xmlns="http://www.w3.org/2000/svg" xmlns:xlink="http://www.w3.org/1999/xlink" xml:space="preserve" xmlns:serif="http://www.serif.com/" style="fill-rule:evenodd;clip-rule:evenodd;stroke-linejoin:round;stroke-miterlimit:1.41421;"><path d="M43.209,13.915l-1.02,7.563l3.109,0l-1.135,-7.563l-0.954,0Z" style="fill:#333;fill-rule:nonzero;"/><path d="M64.765,13.458l-4.131,0l-0.678,-0.008l0,6.816l3.822,0.005l0,1.207l-3.822,-0.017l0,6.382l0.678,0.007l4.131,0l0,1.207l-6.238,0l0,-16.806l6.238,0l0,1.207Zm-8.266,3.651l-1.277,0l0,-1.222c0,-2.19 -1.483,-2.426 -2.121,-2.426c-0.638,0 -2.121,0.236 -2.121,2.426l0,9.577c0,2.09 1.329,2.401 2.121,2.401c0.792,0 2.121,-0.311 2.121,-2.401l0,-3.268l-0.014,-0.679l-2.183,0l0,-1.176l3.474,0l0,4.946c0,2.508 -1.169,3.779 -3.474,3.779c-2.305,0 -3.473,-1.271 -3.473,-3.779l0,-9.222c0,-2.509 1.168,-3.78 3.473,-3.78c2.305,0 3.474,1.271 3.474,3.78l0,1.044Zm-10.063,11.948l-0.962,-6.405l-3.444,0l-0.864,6.405l-1.461,0l2.618,-16.806l2.92,0l2.617,16.806l-1.424,0Zm-8.526,-11.948l-1.276,0l0,-1.222c0,-2.19 -1.484,-2.426 -2.121,-2.426c-0.638,0 -2.121,0.236 -2.121,2.426l0,9.577c0,2.09 1.329,2.401 2.121,2.401c0.792,0 2.121,-0.311 2.121,-2.401l0,-1.855l1.276,0l0,1.678c0,2.508 -1.168,3.779 -3.473,3.779c-2.305,0 -3.473,-1.271 -3.473,-3.779l0,-9.222c0,-2.509 1.168,-3.78 3.473,-3.78c2.305,0 3.473,1.271 3.473,3.78l0,1.044Zm9.634,-9.879l-0.606,0l-19.372,0l0,26.857l40.597,0l0,-26.857l-20.619,0Z" style="fill:#333;fill-rule:nonzero;"/><path d="M17.797,25.207c0,1.55 -0.862,1.876 -1.585,1.876c-0.723,0 -1.585,-0.326 -1.585,-1.876l0,-9.097c0,-1.55 0.862,-1.875 1.585,-1.875c0.723,0 1.585,0.325 1.585,1.875l0,9.097Zm-1.585,-12.949c-2.451,0 -3.801,1.428 -3.801,4.021l0,8.76c0,2.593 1.35,4.02 3.801,4.02c2.451,0 3.801,-1.427 3.801,-4.02l0,-8.76c0,-2.593 -1.35,-4.021 -3.801,-4.021Z" style="fill:#ed1e24;fill-rule:nonzero;"/><path d="M7.167,12.45l-1.814,0l0,1.785l1.814,0l0,12.848l-1.814,0l0,1.784l5.844,0l0,-1.784l-1.815,0l0,-12.848l1.815,0l0,-1.785l-1.815,0l-2.215,0Z" style="fill:#ed1e24;fill-rule:nonzero;"/><path d="M22.816,31.532l-18.995,0c-0.002,0 -0.004,0 -0.006,0c-1.265,-0.029 -1.265,-0.772 -1.265,-1.217l0,-21.043l19.365,0c0.901,0.046 0.901,0.639 0.901,1.117l0,21.143Zm-14.312,-24.891c0,-2.29 1.862,-4.153 4.15,-4.153c2.288,0 4.149,1.863 4.149,4.153l0,0.076l-8.299,0l0,-0.076Zm13.441,0.076c-0.001,0 -0.002,0 -0.002,0l-1.158,0l-1.49,0l0,-0.076c0,-3.665 -2.979,-6.648 -6.641,-6.648c-3.662,0 -6.642,2.983 -6.642,6.648l0,0.076l-1.932,0l-3.024,0l-1.059,0c0,0 0,19.764 0,23.598c0,3.713 3.584,3.772 3.812,3.772l21.56,0c0,0 0,-20.004 0,-23.698c0,-3.65 -3.343,-3.672 -3.424,-3.672Z" style="fill:#333;fill-rule:nonzero;"/></svg>